<?xml version="1.0" encoding="utf-8"?>
<!-- Generator: Adobe Illustrator 25.4.1, SVG Export Plug-In . SVG Version: 6.00 Build 0)  -->
<svg version="1.1" id="Calque_1" focusable="false" xmlns="http://www.w3.org/2000/svg" xmlns:xlink="http://www.w3.org/1999/xlink"
	 x="0px" y="0px" viewBox="0 0 510.2 510.2" style="enable-background:new 0 0 510.2 510.2;" xml:space="preserve">
<style type="text/css">
	.st0{fill:url(#SVGID_1_);}
</style>
<g>
	<linearGradient id="SVGID_1_" gradientUnits="userSpaceOnUse" x1="127.5293" y1="34.1411" x2="382.6707" y2="476.0589">
		<stop  offset="0" style="stop-color:#FF79DA"/>
		<stop  offset="1" style="stop-color:#9356DC"/>
	</linearGradient>
	<path class="st0" d="M255.1,22c31.5,0,62,6.2,90.7,18.3c27.8,11.7,52.7,28.5,74.1,50c21.4,21.4,38.2,46.3,50,74.1
		c12.1,28.7,18.3,59.2,18.3,90.7s-6.2,62-18.3,90.7c-11.7,27.8-28.5,52.7-50,74.1c-21.4,21.4-46.3,38.2-74.1,50
		c-28.7,12.1-59.2,18.3-90.7,18.3s-62-6.2-90.7-18.3c-27.8-11.7-52.7-28.5-74.1-50c-21.4-21.4-38.2-46.3-50-74.1
		C28.2,317.1,22,286.6,22,255.1s6.2-62,18.3-90.7c11.7-27.8,28.5-52.7,50-74.1s46.3-38.2,74.1-50C193.1,28.2,223.6,22,255.1,22
		 M255.1,0C114.2,0,0,114.2,0,255.1s114.2,255.1,255.1,255.1S510.2,396,510.2,255.1S396,0,255.1,0L255.1,0z"/>
</g>
</svg>
