<?xml version="1.0" encoding="utf-8"?>
<!-- Generator: Adobe Illustrator 25.4.1, SVG Export Plug-In . SVG Version: 6.00 Build 0)  -->
<svg version="1.1" id="Calque_1" focusable="false" xmlns="http://www.w3.org/2000/svg" xmlns:xlink="http://www.w3.org/1999/xlink"
	 x="0px" y="0px" viewBox="0 0 510.2 510.2" style="enable-background:new 0 0 510.2 510.2;" xml:space="preserve">
<style type="text/css">
	.st0{fill:url(#SVGID_1_);}
</style>
<linearGradient id="SVGID_1_" gradientUnits="userSpaceOnUse" x1="127.5378" y1="34.1425" x2="382.6985" y2="476.0938">
	<stop  offset="0" style="stop-color:#FF79DA"/>
	<stop  offset="1" style="stop-color:#9356DC"/>
</linearGradient>
<path class="st0" d="M255.1,16c32.3,0,63.6,6.3,93.1,18.8c28.5,12,54,29.3,76,51.3c22,22,39.2,47.5,51.3,76
	c12.5,29.5,18.8,60.8,18.8,93.1s-6.3,63.6-18.8,93.1c-12,28.5-29.3,54-51.3,76c-22,22-47.5,39.2-76,51.3
	c-29.5,12.5-60.8,18.8-93.1,18.8s-63.6-6.3-93.1-18.8c-28.5-12-54-29.3-76-51.3c-22-22-39.2-47.5-51.3-76
	C22.3,318.7,16,287.4,16,255.1s6.3-63.6,18.8-93.1c12-28.5,29.3-54,51.3-76c22-22,47.5-39.2,76-51.3C191.5,22.3,222.8,16,255.1,16
	 M255.1,0C114.2,0,0,114.2,0,255.1s114.2,255.1,255.1,255.1S510.2,396,510.2,255.1S396,0,255.1,0L255.1,0z"/>
</svg>
