<?xml version="1.0" encoding="utf-8"?>
<!-- Generator: Adobe Illustrator 25.4.1, SVG Export Plug-In . SVG Version: 6.00 Build 0)  -->
<svg version="1.1" id="Calque_1" focusable="false" xmlns="http://www.w3.org/2000/svg" xmlns:xlink="http://www.w3.org/1999/xlink"
	 x="0px" y="0px" viewBox="0 0 510.2 510.2" style="enable-background:new 0 0 510.2 510.2;" xml:space="preserve">
<style type="text/css">
	.st0{fill:#99E2D0;}
	.st1{fill:#3A3A3A;}
</style>
<g>
	<g>
		<path class="st0" d="M447.3,443.8c0.3-0.2,2-1.6,4.5-3.5c1.2-1,2.7-2.1,4.3-3.4c1.5-1.3,3.2-2.8,4.9-4.3c1.7-1.5,3.5-3.1,5.1-4.7
			c1.7-1.7,3.3-3.3,4.8-4.9c1.5-1.6,3-3.1,4.2-4.6c1.2-1.5,2.3-2.8,3.1-4c1.3-1.8,2.4-3.6,3.3-5.4c0.9-1.8,1.6-3.7,2.3-5.5
			c1.2-3.6,1.9-7.1,1.8-10.6c-0.2-6.9-2.4-12.9-6.7-17.8c6.4-10.5,11.9-21.6,16.8-33c4.8-11.4,8.7-23.3,11.9-35.3
			c1-4.2-1.6-8.4-5.6-9l-18.5-3.2c-4-0.7-7.7,1.9-8.2,5.6c-1.7,10.7-3.9,21.5-7,32c-3.2,10.5-7,20.8-11.7,30.9
			c-6.3-1-12.5-0.4-17.9,1.8c-2.6,1.1-5.3,2.5-7.6,4.4c-1.2,0.9-2.2,2-3.3,3.1c-1.1,1.1-2.1,2.3-3.1,3.7c-0.6,0.9-1.3,2-2.1,3.3
			c-0.7,1.3-1.7,2.6-2.5,4.1c-0.9,1.5-1.8,3-2.7,4.6c-0.9,1.6-1.9,3.1-2.8,4.6c-0.9,1.5-1.8,3-2.6,4.4c-0.8,1.4-1.7,2.5-2.4,3.6
			c-1.4,2.1-2.3,3.6-2.5,3.8c-1.4,2.3-0.2,5.5,2.2,7.9c2.3,2.3,5.7,3.7,8.1,1.8c2.2-2.4,4.5-4.7,6.7-7.1l6.4-7.4l6-7.7
			c2-2.6,3.8-5.3,5.7-7.9c0.9-0.5,4.2,1.8,3.9,2.7c-1,1.5-2.7,4.4-4.9,7.8c-1.2,1.7-2.4,3.5-3.7,5.3c-1.3,1.9-2.6,3.8-4,5.6
			c-5.4,7.3-11,13.5-11.2,13.8c-1.7,2.5-0.5,5.8,1.8,8.2c2.3,2.3,5.8,3.7,8.3,1.7c0.3-0.3,6.9-6.2,13.5-13.3
			c1.7-1.7,3.3-3.6,4.9-5.4c1.6-1.8,3.2-3.6,4.6-5.2c2.7-3.4,5-6.2,6.2-7.7c0.8-0.6,4.2,1.6,3.9,2.7c-2.1,3-4.2,6-6.4,8.9l-6.8,8.6
			l-7.2,8.3c-2.4,2.7-5,5.3-7.5,8c-2,2.7-1,6.2,1.3,8.6C441.1,444.6,444.7,445.9,447.3,443.8z"/>
		<path class="st1" d="M337.3,469c15.5-7.6,30.1-16.8,43.3-27.4c2.9-2.5,7.5-1.8,9.9,1.6l9.6,13.4c2.3,3.2,1.4,7.6-2,10
			c-10,6.7-20.4,12.8-31.2,18.1c-2.7,1.4-5.5,2.5-8.2,3.8l-4.1,1.9l-4.2,1.7c-2.8,1.1-5.6,2.2-8.4,3.3l-8.6,2.9
			c-11.5,3.6-23.1,6.7-35,8.6l-4.4,0.8l-4.5,0.6c-3,0.4-6,0.8-9,1.1c-6,0.4-12,1.1-18,1.1c-4.1,0.1-7.5-3-7.5-6.9
			c0-6.1,3.4-13.2,8.3-19.9c1.2-1.7,2.6-3.2,4-4.9c1.4-1.6,2.9-3.2,4.5-4.7c1.6-1.5,3.2-2.9,4.9-4.2c1.7-1.4,3.4-2.7,5.3-3.9
			c1.8-1.2,3.7-2.2,5.6-3.1c1.9-1,3.8-1.8,5.8-2.5c1-0.3,2-0.6,3-0.8c1-0.2,2.1-0.5,3.1-0.7c2.1-0.4,4.3-0.5,6.5-0.5
			c2.3,0.1,4.5,0.2,6.9,0.6c2.4,0.4,4.9,1.2,7.4,2c2.6,0.8,5.2,2,8,3.4c1.4,0.7,2.8,1.5,4.3,2.3C334.3,467.2,335.8,468.1,337.3,469z
			"/>
	</g>
	<g>
		<path class="st0" d="M66.4,447.3c0.2,0.3,1.6,2,3.5,4.5c1,1.2,2.1,2.7,3.4,4.3c1.3,1.5,2.8,3.2,4.3,4.9c1.5,1.7,3.1,3.5,4.7,5.1
			c1.7,1.7,3.3,3.3,4.9,4.8c1.6,1.5,3.1,3,4.6,4.2c1.5,1.2,2.8,2.3,4,3.1c1.8,1.3,3.6,2.4,5.4,3.3c1.8,0.9,3.7,1.6,5.5,2.3
			c3.6,1.2,7.1,1.9,10.6,1.8c6.9-0.2,12.9-2.4,17.8-6.7c10.5,6.4,21.6,11.9,33,16.8c11.4,4.8,23.3,8.7,35.3,11.9
			c4.2,1,8.4-1.6,9-5.6l3.2-18.5c0.7-4-1.9-7.7-5.6-8.2c-10.7-1.7-21.5-3.9-32-7c-10.5-3.2-20.8-7-30.9-11.7
			c1-6.3,0.4-12.5-1.8-17.9c-1.1-2.6-2.5-5.3-4.4-7.6c-0.9-1.2-2-2.2-3.1-3.3c-1.1-1.1-2.3-2.1-3.7-3.1c-0.9-0.6-2-1.3-3.3-2.1
			c-1.3-0.7-2.6-1.7-4.1-2.5c-1.5-0.9-3-1.8-4.6-2.7c-1.6-0.9-3.1-1.9-4.6-2.8c-1.5-0.9-3-1.8-4.4-2.6c-1.4-0.8-2.5-1.7-3.6-2.4
			c-2.1-1.4-3.6-2.3-3.8-2.5c-2.3-1.4-5.5-0.2-7.9,2.2c-2.3,2.3-3.7,5.7-1.8,8.1c2.4,2.2,4.7,4.5,7.1,6.7l7.4,6.4l7.7,6
			c2.6,2,5.3,3.8,7.9,5.7c0.5,0.9-1.8,4.2-2.7,3.9c-1.5-1-4.4-2.7-7.8-4.9c-1.7-1.2-3.5-2.4-5.3-3.7c-1.9-1.3-3.8-2.6-5.6-4
			c-7.3-5.4-13.5-11-13.8-11.2c-2.5-1.7-5.8-0.5-8.2,1.8c-2.3,2.3-3.7,5.8-1.7,8.3c0.3,0.3,6.2,6.9,13.3,13.5
			c1.7,1.7,3.6,3.3,5.4,4.9c1.8,1.6,3.6,3.2,5.2,4.6c3.4,2.7,6.2,5,7.7,6.2c0.6,0.8-1.6,4.2-2.7,3.9c-3-2.1-6-4.2-8.9-6.4l-8.6-6.8
			l-8.3-7.2c-2.7-2.4-5.3-5-8-7.5c-2.7-2-6.2-1-8.6,1.3C65.6,441.1,64.3,444.7,66.4,447.3z"/>
		<path class="st1" d="M41.2,337.3c7.6,15.5,16.8,30.1,27.4,43.3c2.5,2.9,1.8,7.5-1.6,9.9l-13.4,9.6c-3.2,2.3-7.6,1.4-10-2
			c-6.7-10-12.8-20.4-18.1-31.2c-1.4-2.7-2.5-5.5-3.8-8.2l-1.9-4.1l-1.7-4.2c-1.1-2.8-2.2-5.6-3.3-8.4l-2.9-8.6
			c-3.6-11.5-6.7-23.1-8.6-35L2.8,294l-0.6-4.5c-0.4-3-0.8-6-1.1-9c-0.4-6-1.1-12-1.1-18c-0.1-4.1,3-7.5,6.9-7.5
			c6.1,0,13.2,3.4,19.9,8.3c1.7,1.2,3.2,2.6,4.9,4c1.6,1.4,3.2,2.9,4.7,4.5c1.5,1.6,2.9,3.2,4.2,4.9c1.4,1.7,2.7,3.4,3.9,5.3
			c1.2,1.8,2.2,3.7,3.1,5.6c1,1.9,1.8,3.8,2.5,5.8c0.3,1,0.6,2,0.8,3c0.2,1,0.5,2.1,0.7,3.1c0.4,2.1,0.5,4.3,0.5,6.5
			c-0.1,2.3-0.2,4.5-0.6,6.9c-0.4,2.4-1.2,4.9-2,7.4c-0.8,2.6-2,5.2-3.4,8c-0.7,1.4-1.5,2.8-2.3,4.3C43,334.3,42.1,335.8,41.2,337.3
			z"/>
	</g>
	<g>
		<path class="st0" d="M62.9,66.4c-0.3,0.2-2,1.6-4.5,3.5c-1.2,1-2.7,2.1-4.3,3.4c-1.5,1.3-3.2,2.8-4.9,4.3
			c-1.7,1.5-3.5,3.1-5.1,4.7c-1.7,1.7-3.3,3.3-4.8,4.9c-1.5,1.6-3,3.1-4.2,4.6c-1.2,1.5-2.3,2.8-3.1,4c-1.3,1.8-2.4,3.6-3.3,5.4
			c-0.9,1.8-1.6,3.7-2.3,5.5c-1.2,3.6-1.9,7.1-1.8,10.6c0.2,6.9,2.4,12.9,6.7,17.8c-6.4,10.5-11.9,21.6-16.8,33
			c-4.8,11.4-8.7,23.3-11.9,35.3c-1,4.2,1.6,8.4,5.6,9l18.5,3.2c4,0.7,7.7-1.9,8.2-5.6c1.7-10.7,3.9-21.5,7-32
			c3.2-10.5,7-20.8,11.7-30.9c6.3,1,12.5,0.4,17.9-1.8c2.6-1.1,5.3-2.5,7.6-4.4c1.2-0.9,2.2-2,3.3-3.1c1.1-1.1,2.1-2.3,3.1-3.7
			c0.6-0.9,1.3-2,2.1-3.3c0.7-1.3,1.7-2.6,2.5-4.1c0.9-1.5,1.8-3,2.7-4.6c0.9-1.6,1.9-3.1,2.8-4.6c0.9-1.5,1.8-3,2.6-4.4
			c0.8-1.4,1.7-2.5,2.4-3.6c1.4-2.1,2.3-3.6,2.5-3.8c1.4-2.3,0.2-5.5-2.2-7.9c-2.3-2.3-5.7-3.7-8.1-1.8c-2.2,2.4-4.5,4.7-6.7,7.1
			l-6.4,7.4l-6,7.7c-2,2.6-3.8,5.3-5.7,7.9c-0.9,0.5-4.2-1.8-3.9-2.7c1-1.5,2.7-4.4,4.9-7.8c1.2-1.7,2.4-3.5,3.7-5.3
			c1.3-1.9,2.6-3.8,4-5.6c5.4-7.3,11-13.5,11.2-13.8c1.7-2.5,0.5-5.8-1.8-8.2c-2.3-2.3-5.8-3.7-8.3-1.7c-0.3,0.3-6.9,6.2-13.5,13.3
			c-1.7,1.7-3.3,3.6-4.9,5.4c-1.6,1.8-3.2,3.6-4.6,5.2c-2.7,3.4-5,6.2-6.2,7.7c-0.8,0.6-4.2-1.6-3.9-2.7c2.1-3,4.2-6,6.4-8.9
			l6.8-8.6l7.2-8.3c2.4-2.7,5-5.3,7.5-8c2-2.7,1-6.2-1.3-8.6C69.1,65.6,65.5,64.3,62.9,66.4z"/>
		<path class="st1" d="M173,41.2c-15.5,7.6-30.1,16.8-43.3,27.4c-2.9,2.5-7.5,1.8-9.9-1.6l-9.6-13.4c-2.3-3.2-1.4-7.6,2-10
			c10-6.7,20.4-12.8,31.2-18.1c2.7-1.4,5.5-2.5,8.2-3.8l4.1-1.9l4.2-1.7c2.8-1.1,5.6-2.2,8.4-3.3l8.6-2.9c11.5-3.6,23.1-6.7,35-8.6
			l4.4-0.8l4.5-0.6c3-0.4,6-0.8,9-1.1c6-0.4,12-1.1,18-1.1c4.1-0.1,7.5,3,7.5,6.9c0,6.1-3.4,13.2-8.3,19.9c-1.2,1.7-2.6,3.2-4,4.9
			c-1.4,1.6-2.9,3.2-4.5,4.7c-1.6,1.5-3.2,2.9-4.9,4.2c-1.7,1.4-3.4,2.7-5.3,3.9c-1.8,1.2-3.7,2.2-5.6,3.1c-1.9,1-3.8,1.8-5.8,2.5
			c-1,0.3-2,0.6-3,0.8c-1,0.2-2.1,0.5-3.1,0.7c-2.1,0.4-4.3,0.5-6.5,0.5c-2.3-0.1-4.5-0.2-6.9-0.6c-2.4-0.4-4.9-1.2-7.4-2
			c-2.6-0.8-5.2-2-8-3.4c-1.4-0.7-2.8-1.5-4.3-2.3C175.9,43,174.5,42.1,173,41.2z"/>
	</g>
	<g>
		<path class="st0" d="M443.8,62.9c-0.2-0.3-1.6-2-3.5-4.5c-1-1.2-2.1-2.7-3.4-4.3c-1.3-1.5-2.8-3.2-4.3-4.9
			c-1.5-1.7-3.1-3.5-4.7-5.1c-1.7-1.7-3.3-3.3-4.9-4.8c-1.6-1.5-3.1-3-4.6-4.2c-1.5-1.2-2.8-2.3-4-3.1c-1.8-1.3-3.6-2.4-5.4-3.3
			c-1.8-0.9-3.7-1.6-5.5-2.3c-3.6-1.2-7.1-1.9-10.6-1.8c-6.9,0.2-12.9,2.4-17.8,6.7c-10.5-6.4-21.6-11.9-33-16.8
			c-11.4-4.8-23.3-8.7-35.3-11.9c-4.2-1-8.4,1.6-9,5.6l-3.2,18.5c-0.7,4,1.9,7.7,5.6,8.2c10.7,1.7,21.5,3.9,32,7
			c10.5,3.2,20.8,7,30.9,11.7c-1,6.3-0.4,12.5,1.8,17.9c1.1,2.6,2.5,5.3,4.4,7.6c0.9,1.2,2,2.2,3.1,3.3c1.1,1.1,2.3,2.1,3.7,3.1
			c0.9,0.6,2,1.3,3.3,2.1c1.3,0.7,2.6,1.7,4.1,2.5c1.5,0.9,3,1.8,4.6,2.7c1.6,0.9,3.1,1.9,4.6,2.8c1.5,0.9,3,1.8,4.4,2.6
			c1.4,0.8,2.5,1.7,3.6,2.4c2.1,1.4,3.6,2.3,3.8,2.5c2.3,1.4,5.5,0.2,7.9-2.2c2.3-2.3,3.7-5.7,1.8-8.1c-2.4-2.2-4.7-4.5-7.1-6.7
			l-7.4-6.4l-7.7-6c-2.6-2-5.3-3.8-7.9-5.7c-0.5-0.9,1.8-4.2,2.7-3.9c1.5,1,4.4,2.7,7.8,4.9c1.7,1.2,3.5,2.4,5.3,3.7
			c1.9,1.3,3.8,2.6,5.6,4c7.3,5.4,13.5,11,13.8,11.2c2.5,1.7,5.8,0.5,8.2-1.8c2.3-2.3,3.7-5.8,1.7-8.3c-0.3-0.3-6.2-6.9-13.3-13.5
			c-1.7-1.7-3.6-3.3-5.4-4.9c-1.8-1.6-3.6-3.2-5.2-4.6c-3.4-2.7-6.2-5-7.7-6.2c-0.6-0.8,1.6-4.2,2.7-3.9c3,2.1,6,4.2,8.9,6.4
			l8.6,6.8l8.3,7.2c2.7,2.4,5.3,5,8,7.5c2.7,2,6.2,1,8.6-1.3C444.6,69.1,445.9,65.5,443.8,62.9z"/>
		<path class="st1" d="M469,173c-7.6-15.5-16.8-30.1-27.4-43.3c-2.5-2.9-1.8-7.5,1.6-9.9l13.4-9.6c3.2-2.3,7.6-1.4,10,2
			c6.7,10,12.8,20.4,18.1,31.2c1.4,2.7,2.5,5.5,3.8,8.2l1.9,4.1l1.7,4.2c1.1,2.8,2.2,5.6,3.3,8.4l2.9,8.6c3.6,11.5,6.7,23.1,8.6,35
			l0.8,4.4l0.6,4.5c0.4,3,0.8,6,1.1,9c0.4,6,1.1,12,1.1,18c0.1,4.1-3,7.5-6.9,7.5c-6.1,0-13.2-3.4-19.9-8.3c-1.7-1.2-3.2-2.6-4.9-4
			c-1.6-1.4-3.2-2.9-4.7-4.5c-1.5-1.6-2.9-3.2-4.2-4.9c-1.4-1.7-2.7-3.4-3.9-5.3c-1.2-1.8-2.2-3.7-3.1-5.6c-1-1.9-1.8-3.8-2.5-5.8
			c-0.3-1-0.6-2-0.8-3c-0.2-1-0.5-2.1-0.7-3.1c-0.4-2.1-0.5-4.3-0.5-6.5c0.1-2.3,0.2-4.5,0.6-6.9c0.4-2.4,1.2-4.9,2-7.4
			c0.8-2.6,2-5.2,3.4-8c0.7-1.4,1.5-2.8,2.3-4.3C467.2,175.9,468.1,174.5,469,173z"/>
	</g>
</g>
</svg>
